<?xml version="1.0" encoding="UTF-8"?>
<svg version="1.1" xmlns="http://www.w3.org/2000/svg" width="32" height="32">
<path d="M0 0 C10.56 0 21.12 0 32 0 C32 10.56 32 21.12 32 32 C21.44 32 10.88 32 0 32 C0 21.44 0 10.88 0 0 Z " fill="#F55C5C" transform="translate(0,0)"/>
<path d="M0 0 C2.8125 1.25 2.8125 1.25 5 3 C5.8125 5.1875 5.8125 5.1875 6 7 C5.01 7 4.02 7 3 7 C2.566875 6.505 2.13375 6.01 1.6875 5.5 C-0.00911521 3.69733636 -0.00911521 3.69733636 -3.0625 3.6875 C-6.12061828 3.70172688 -6.12061828 3.70172688 -8 6 C-8.31537716 10.33643601 -8.44897847 12.32653229 -6 16 C-3.04230823 16.50010524 -3.04230823 16.50010524 0 16 C1.68798827 14.56249809 1.68798827 14.56249809 3 13 C3.99 13 4.98 13 6 13 C4.55172414 17.5862069 4.55172414 17.5862069 2.25 19.3125 C-0.72986902 20.22301553 -2.89492688 20.38021303 -6 20 C-8.69990662 18.20006226 -10.5418865 16.916227 -12 14 C-12.37712577 9.00308353 -12.09290612 6.00932275 -9 2 C-5.4913604 -0.33909307 -4.12910567 -0.41291057 0 0 Z " fill="#FEEFEE" transform="translate(19,6)"/>
</svg>
